{
  "accessors": [
    {
      "bufferView": 2,
      "componentType": 5126,
      "count": 11311,
      "max": [
        43.052734375,
        33.81032943725586,
        159.1680145263672
      ],
      "min": [
        -43.052734375,
        -37.41617202758789,
        0.0
      ],
      "type": "VEC3"
    },
    {
      "bufferView": 2,
      "byteOffset": 135732,
      "componentType": 5126,
      "count": 11311,
      "max": [
        1.0,
        1.0,
        1.0
      ],
      "min": [
        -1.0,
        -1.0,
        -1.0
      ],
      "type": "VEC3"
    },
    {
      "bufferView": 3,
      "componentType": 5126,
      "count": 11311,
      "max": [
        1.0,
        1.0,
        1.0,
        1.0
      ],
      "min": [
        -1.0,
        -1.0,
        -1.0,
        -1.0
      ],
      "type": "VEC4"
    },
    {
      "bufferView": 1,
      "componentType": 5126,
      "count": 11311,
      "max": [
        1.98876953125,
        0.997802734375
      ],
      "min": [
        0.003173828125,
        0.0021800994873046875
      ],
      "type": "VEC2"
    },
    {
      "bufferView": 0,
      "componentType": 5125,
      "count": 32355,
      "type": "SCALAR"
    },
    {
      "bufferView": 2,
      "byteOffset": 271464,
      "componentType": 5126,
      "count": 1142,
      "max": [
        41.37240219116211,
        19.42577362060547,
        159.276611328125
      ],
      "min": [
        -41.37240219116211,
        -31.239652633666992,
        13.706027030944824
      ],
      "type": "VEC3"
    },
    {
      "bufferView": 2,
      "byteOffset": 285168,
      "componentType": 5126,
      "count": 1142,
      "max": [
        1.0,
        0.25379040837287903,
        0.9998622536659241
      ],
      "min": [
        -1.0,
        -1.0,
        -1.0
      ],
      "type": "VEC3"
    },
    {
      "bufferView": 3,
      "byteOffset": 180976,
      "componentType": 5126,
      "count": 1142,
      "max": [
        1.0,
        1.0,
        1.0,
        1.0
      ],
      "min": [
        -0.9997789263725281,
        -0.9998622536659241,
        -0.9998857975006104,
        1.0
      ],
      "type": "VEC4"
    },
    {
      "bufferView": 1,
      "byteOffset": 90488,
      "componentType": 5126,
      "count": 1142,
      "max": [
        0.99560546875,
        0.9931640625
      ],
      "min": [
        0.0126953125,
        0.0087890625
      ],
      "type": "VEC2"
    },
    {
      "bufferView": 1,
      "byteOffset": 99624,
      "componentType": 5126,
      "count": 1142,
      "max": [
        0.99560546875,
        0.9931640625
      ],
      "min": [
        0.0126953125,
        0.0087890625
      ],
      "type": "VEC2"
    },
    {
      "bufferView": 0,
      "byteOffset": 129420,
      "componentType": 5125,
      "count": 3474,
      "type": "SCALAR"
    },
    {
      "bufferView": 2,
      "byteOffset": 298872,
      "componentType": 5126,
      "count": 522,
      "max": [
        25.871170043945313,
        19.559341430664063,
        145.15274047851563
      ],
      "min": [
        -25.871170043945313,
        -36.73991394042969,
        82.29791259765625
      ],
      "type": "VEC3"
    },
    {
      "bufferView": 2,
      "byteOffset": 305136,
      "componentType": 5126,
      "count": 522,
      "max": [
        1.0,
        7.953947829264507e-07,
        1.0
      ],
      "min": [
        -1.0,
        -1.0,
        -1.0
      ],
      "type": "VEC3"
    },
    {
      "bufferView": 3,
      "byteOffset": 199248,
      "componentType": 5126,
      "count": 522,
      "max": [
        1.0,
        7.921335765104232e-08,
        1.0,
        1.0
      ],
      "min": [
        -1.0,
        -2.6397393071420083e-07,
        -1.0,
        1.0
      ],
      "type": "VEC4"
    },
    {
      "bufferView": 1,
      "byteOffset": 108760,
      "componentType": 5126,
      "count": 522,
      "max": [
        1.838129997253418,
        0.9799290895462036
      ],
      "min": [
        0.009142428636550903,
        0.010883748531341553
      ],
      "type": "VEC2"
    },
    {
      "bufferView": 1,
      "byteOffset": 112936,
      "componentType": 5126,
      "count": 522,
      "max": [
        1.838129997253418,
        0.9799290895462036
      ],
      "min": [
        0.009142428636550903,
        0.010883748531341553
      ],
      "type": "VEC2"
    },
    {
      "bufferView": 0,
      "byteOffset": 143316,
      "componentType": 5125,
      "count": 774,
      "type": "SCALAR"
    },
    {
      "bufferView": 2,
      "byteOffset": 311400,
      "componentType": 5126,
      "count": 424,
      "max": [
        20.848533630371094,
        -27.22918701171875,
        111.18108367919922
      ],
      "min": [
        -20.814611434936523,
        -32.647972106933594,
        94.36084747314453
      ],
      "type": "VEC3"
    },
    {
      "bufferView": 2,
      "byteOffset": 316488,
      "componentType": 5126,
      "count": 424,
      "max": [
        1.0,
        0.9826996326446533,
        0.9826804399490356
      ],
      "min": [
        -1.0,
        -0.9826995134353638,
        -0.9827011227607727
      ],
      "type": "VEC3"
    },
    {
      "bufferView": 1,
      "byteOffset": 117112,
      "componentType": 5126,
      "count": 424,
      "max": [
        0.9833984375,
        0.99560546875
      ],
      "min": [
        0.0048828125,
        0.15869140625
      ],
      "type": "VEC2"
    },
    {
      "bufferView": 0,
      "byteOffset": 146412,
      "componentType": 5125,
      "count": 636,
      "type": "SCALAR"
    }
  ],
  "asset": {
    "extras": {
      "author": "Rescue3D Assets (https://sketchfab.com/rescue3d)",
      "license": "CC-BY-4.0 (http://creativecommons.org/licenses/by/4.0/)",
      "source": "https://sketchfab.com/3d-models/jukebox-188e71ce378f4b6786054d9f74dd3a25",
      "title": "Jukebox"
    },
    "generator": "Sketchfab-15.17.0",
    "version": "2.0"
  },
  "bufferViews": [
    {
      "buffer": 0,
      "byteLength": 148956,
      "name": "floatBufferViews",
      "target": 34963
    },
    {
      "buffer": 0,
      "byteLength": 120504,
      "byteOffset": 148956,
      "byteStride": 8,
      "name": "floatBufferViews",
      "target": 34962
    },
    {
      "buffer": 0,
      "byteLength": 321576,
      "byteOffset": 269460,
      "byteStride": 12,
      "name": "floatBufferViews",
      "target": 34962
    },
    {
      "buffer": 0,
      "byteLength": 207600,
      "byteOffset": 591036,
      "byteStride": 16,
      "name": "floatBufferViews",
      "target": 34962
    }
  ],
  "buffers": [
    {
      "byteLength": 798636,
      "uri": "scene.bin"
    }
  ],
  "images": [
    {
      "uri": "textures/Jukebox_Main_baseColor.png"
    },
    {
      "uri": "textures/Jukebox_Main_metallicRoughness.png"
    },
    {
      "uri": "textures/Jukebox_Main_normal.png"
    },
    {
      "uri": "textures/Jukebox_Emission_baseColor.png"
    },
    {
      "uri": "textures/Jukebox_Emission_metallicRoughness.png"
    },
    {
      "uri": "textures/Jukebox_Emission_emissive.png"
    },
    {
      "uri": "textures/Jukebox_Emission_normal.png"
    },
    {
      "uri": "textures/Jukebox_Alpha_baseColor.png"
    },
    {
      "uri": "textures/Jukebox_Alpha_metallicRoughness.png"
    },
    {
      "uri": "textures/Jukebox_Alpha_normal.png"
    },
    {
      "uri": "textures/Jukebox_Titles_baseColor.png"
    }
  ],
  "materials": [
    {
      "doubleSided": true,
      "name": "Jukebox_Main",
      "normalTexture": {
        "index": 2
      },
      "occlusionTexture": {
        "index": 1
      },
      "pbrMetallicRoughness": {
        "baseColorTexture": {
          "index": 0
        },
        "metallicRoughnessTexture": {
          "index": 1
        }
      }
    },
    {
      "doubleSided": true,
      "emissiveFactor": [
        0.8990503590106179,
        0.8990503590106179,
        0.8990503590106179
      ],
      "emissiveTexture": {
        "index": 5
      },
      "name": "Jukebox_Emission",
      "normalTexture": {
        "index": 6
      },
      "pbrMetallicRoughness": {
        "baseColorTexture": {
          "index": 3
        },
        "metallicRoughnessTexture": {
          "index": 4
        }
      }
    },
    {
      "alphaMode": "BLEND",
      "doubleSided": true,
      "name": "Jukebox_Alpha",
      "normalTexture": {
        "index": 9
      },
      "pbrMetallicRoughness": {
        "baseColorTexture": {
          "index": 7
        },
        "metallicFactor": 0.46171569284782576,
        "metallicRoughnessTexture": {
          "index": 8
        }
      }
    },
    {
      "doubleSided": true,
      "name": "Jukebox_Titles",
      "pbrMetallicRoughness": {
        "baseColorTexture": {
          "index": 10
        },
        "metallicFactor": 0.0,
        "roughnessFactor": 0.8211145618000169
      }
    }
  ],
  "meshes": [
    {
      "name": "Vintage_Jukebox_Jukebox_Main_0",
      "primitives": [
        {
          "attributes": {
            "NORMAL": 1,
            "POSITION": 0,
            "TANGENT": 2,
            "TEXCOORD_0": 3
          },
          "indices": 4,
          "material": 0,
          "mode": 4
        }
      ]
    },
    {
      "name": "Vintage_Jukebox_Jukebox_Emission_0",
      "primitives": [
        {
          "attributes": {
            "NORMAL": 6,
            "POSITION": 5,
            "TANGENT": 7,
            "TEXCOORD_0": 8,
            "TEXCOORD_1": 9
          },
          "indices": 10,
          "material": 1,
          "mode": 4
        }
      ]
    },
    {
      "name": "Vintage_Jukebox_Jukebox_Alpha_0",
      "primitives": [
        {
          "attributes": {
            "NORMAL": 12,
            "POSITION": 11,
            "TANGENT": 13,
            "TEXCOORD_0": 14,
            "TEXCOORD_1": 15
          },
          "indices": 16,
          "material": 2,
          "mode": 4
        }
      ]
    },
    {
      "name": "Vintage_Jukebox_Jukebox_Titles_0",
      "primitives": [
        {
          "attributes": {
            "NORMAL": 18,
            "POSITION": 17,
            "TEXCOORD_0": 19
          },
          "indices": 20,
          "material": 3,
          "mode": 4
        }
      ]
    }
  ],
  "nodes": [
    {
      "children": [
        1
      ],
      "matrix": [
        1.0,
        0.0,
        0.0,
        0.0,
        0.0,
        2.220446049250313e-16,
        -1.0,
        0.0,
        0.0,
        1.0,
        2.220446049250313e-16,
        0.0,
        0.0,
        0.0,
        0.0,
        1.0
      ],
      "name": "Sketchfab_model"
    },
    {
      "children": [
        2
      ],
      "matrix": [
        0.009999999776482582,
        0.0,
        0.0,
        0.0,
        0.0,
        0.0,
        0.009999999776482582,
        0.0,
        0.0,
        -0.009999999776482582,
        0.0,
        0.0,
        0.0,
        0.0,
        0.0,
        1.0
      ],
      "name": "ea5741c2cd584d98ab962477aafb3b28.fbx"
    },
    {
      "children": [
        3
      ],
      "name": "RootNode"
    },
    {
      "children": [
        4
      ],
      "matrix": [
        1.0,
        0.0,
        0.0,
        0.0,
        0.0,
        0.999999999999999,
        4.371138828673792e-08,
        0.0,
        0.0,
        -4.371138828673792e-08,
        0.999999999999999,
        0.0,
        0.0,
        0.0,
        0.0,
        1.0
      ],
      "name": "Vintage_Jukebox"
    },
    {
      "children": [
        5,
        6,
        7,
        8
      ],
      "matrix": [
        1.0,
        0.0,
        0.0,
        0.0,
        0.0,
        6.123233995736766e-17,
        -1.0,
        0.0,
        -0.0,
        1.0,
        6.123233995736766e-17,
        0.0,
        0.0,
        0.0,
        0.0,
        1.0
      ],
      "name": "Object_4"
    },
    {
      "mesh": 0,
      "name": "Vintage_Jukebox_Jukebox_Main_0"
    },
    {
      "mesh": 1,
      "name": "Vintage_Jukebox_Jukebox_Emission_0"
    },
    {
      "mesh": 2,
      "name": "Vintage_Jukebox_Jukebox_Alpha_0"
    },
    {
      "mesh": 3,
      "name": "Vintage_Jukebox_Jukebox_Titles_0"
    }
  ],
  "samplers": [
    {
      "magFilter": 9729,
      "minFilter": 9987,
      "wrapS": 10497,
      "wrapT": 10497
    }
  ],
  "scene": 0,
  "scenes": [
    {
      "name": "Sketchfab_Scene",
      "nodes": [
        0
      ]
    }
  ],
  "textures": [
    {
      "sampler": 0,
      "source": 0
    },
    {
      "sampler": 0,
      "source": 1
    },
    {
      "sampler": 0,
      "source": 2
    },
    {
      "sampler": 0,
      "source": 3
    },
    {
      "sampler": 0,
      "source": 4
    },
    {
      "sampler": 0,
      "source": 5
    },
    {
      "sampler": 0,
      "source": 6
    },
    {
      "sampler": 0,
      "source": 7
    },
    {
      "sampler": 0,
      "source": 8
    },
    {
      "sampler": 0,
      "source": 9
    },
    {
      "sampler": 0,
      "source": 10
    }
  ]
}
