{
  "accessors": [
    {
      "bufferView": 2,
      "componentType": 5126,
      "count": 11442,
      "max": [
        1.228332757949829,
        9.255337715148926,
        2.4478566646575928
      ],
      "min": [
        -1.228332757949829,
        -5.579864501953125,
        -4.529726505279541
      ],
      "type": "VEC3"
    },
    {
      "bufferView": 2,
      "byteOffset": 137304,
      "componentType": 5126,
      "count": 11442,
      "max": [
        1.0,
        1.0,
        1.0
      ],
      "min": [
        -1.0,
        -1.0,
        -1.0
      ],
      "type": "VEC3"
    },
    {
      "bufferView": 1,
      "componentType": 5126,
      "count": 11442,
      "max": [
        0.96875,
        0.9648438692092896
      ],
      "min": [
        0.0820312350988388,
        0.15734374523162842
      ],
      "type": "VEC2"
    },
    {
      "bufferView": 0,
      "componentType": 5125,
      "count": 17490,
      "type": "SCALAR"
    },
    {
      "bufferView": 2,
      "byteOffset": 274608,
      "componentType": 5126,
      "count": 826,
      "max": [
        0.9999999403953552,
        3.2844905853271484,
        0.9817004203796387
      ],
      "min": [
        -0.9999999403953552,
        -0.998760461807251,
        -0.021029064431786537
      ],
      "type": "VEC3"
    },
    {
      "bufferView": 2,
      "byteOffset": 284520,
      "componentType": 5126,
      "count": 826,
      "max": [
        0.995194673538208,
        0.00065056566381827,
        0.9951856136322021
      ],
      "min": [
        -0.9951946139335632,
        6.223253149073571e-05,
        0.09791703522205353
      ],
      "type": "VEC3"
    },
    {
      "bufferView": 1,
      "byteOffset": 91536,
      "componentType": 5126,
      "count": 826,
      "max": [
        0.0820312649011612,
        0.1573437750339508
      ],
      "min": [
        0.0820312350988388,
        0.15734370052814484
      ],
      "type": "VEC2"
    },
    {
      "bufferView": 0,
      "byteOffset": 69960,
      "componentType": 5125,
      "count": 1260,
      "type": "SCALAR"
    }
  ],
  "asset": {
    "extras": {
      "author": "FristiSenpai (https://sketchfab.com/FristiSenpai)",
      "license": "CC-BY-4.0 (http://creativecommons.org/licenses/by/4.0/)",
      "source": "https://sketchfab.com/3d-models/low-poly-raygun-84046f5c72f34f03ab46d1fe54f1e6af",
      "title": "Low poly Raygun"
    },
    "generator": "Sketchfab-12.56.0",
    "version": "2.0"
  },
  "bufferViews": [
    {
      "buffer": 0,
      "byteLength": 75000,
      "name": "floatBufferViews",
      "target": 34963
    },
    {
      "buffer": 0,
      "byteLength": 98144,
      "byteOffset": 75000,
      "byteStride": 8,
      "name": "floatBufferViews",
      "target": 34962
    },
    {
      "buffer": 0,
      "byteLength": 294432,
      "byteOffset": 173144,
      "byteStride": 12,
      "name": "floatBufferViews",
      "target": 34962
    }
  ],
  "buffers": [
    {
      "byteLength": 467576,
      "uri": "scene.bin"
    }
  ],
  "images": [
    {
      "uri": "textures/Material_baseColor.png"
    }
  ],
  "materials": [
    {
      "doubleSided": true,
      "name": "Material",
      "pbrMetallicRoughness": {
        "baseColorTexture": {
          "index": 0
        },
        "metallicFactor": 0.0,
        "roughnessFactor": 0.7880318376
      }
    },
    {
      "doubleSided": true,
      "emissiveFactor": [
        0.01656203738131452,
        0.7715742277611344,
        1.0
      ],
      "name": "glow",
      "pbrMetallicRoughness": {
        "baseColorFactor": [
          0.27020038117282197,
          0.5698037863219885,
          0.8103699510436352,
          1.0
        ],
        "metallicFactor": 0.0,
        "roughnessFactor": 0.5118760982312776
      }
    }
  ],
  "meshes": [
    {
      "name": "Cube_Material_0",
      "primitives": [
        {
          "attributes": {
            "NORMAL": 1,
            "POSITION": 0,
            "TEXCOORD_0": 2
          },
          "indices": 3,
          "material": 0,
          "mode": 4
        }
      ]
    },
    {
      "name": "Cube_glow_0",
      "primitives": [
        {
          "attributes": {
            "NORMAL": 5,
            "POSITION": 4,
            "TEXCOORD_0": 6
          },
          "indices": 7,
          "material": 1,
          "mode": 4
        }
      ]
    }
  ],
  "nodes": [
    {
      "children": [
        1
      ],
      "matrix": [
        1.0,
        0.0,
        0.0,
        0.0,
        0.0,
        2.220446049250313e-16,
        -1.0,
        0.0,
        0.0,
        1.0,
        2.220446049250313e-16,
        0.0,
        0.0,
        0.0,
        0.0,
        1.0
      ],
      "name": "Sketchfab_model"
    },
    {
      "children": [
        2
      ],
      "matrix": [
        0.009999999776482582,
        0.0,
        0.0,
        0.0,
        0.0,
        0.0,
        0.009999999776482582,
        0.0,
        0.0,
        -0.009999999776482582,
        0.0,
        0.0,
        0.0,
        0.0,
        0.0,
        1.0
      ],
      "name": "2d0e0bdb546e45e9a7eb002e37cf7ec6.fbx"
    },
    {
      "children": [
        3
      ],
      "name": "RootNode"
    },
    {
      "children": [
        4,
        5
      ],
      "matrix": [
        100.0,
        0.0,
        0.0,
        0.0,
        0.0,
        -1.629206793918314e-05,
        -99.99999999999868,
        0.0,
        0.0,
        99.99999999999868,
        -1.629206793918314e-05,
        0.0,
        0.0,
        536.7868041992188,
        0.0,
        1.0
      ],
      "name": "Cube"
    },
    {
      "mesh": 0,
      "name": "Cube_Material_0"
    },
    {
      "mesh": 1,
      "name": "Cube_glow_0"
    }
  ],
  "samplers": [
    {
      "magFilter": 9729,
      "minFilter": 9987,
      "wrapS": 10497,
      "wrapT": 10497
    }
  ],
  "scene": 0,
  "scenes": [
    {
      "name": "Sketchfab_Scene",
      "nodes": [
        0
      ]
    }
  ],
  "textures": [
    {
      "sampler": 0,
      "source": 0
    }
  ]
}
